<?xml version="1.0" encoding="utf-8"?>
<svg xmlns="http://www.w3.org/2000/svg" xmlns:xlink="http://www.w3.org/1999/xlink" width="600" height="400" viewBox="0 0 2400 1600">
<defs>
  <clipPath id="clip080">
    <rect x="0" y="0" width="2400" height="1600"/>
  </clipPath>
</defs>
<path clip-path="url(#clip080)" d="M0 1600 L2400 1600 L2400 8.88178e-14 L0 8.88178e-14  Z" fill="#ffffff" fill-rule="evenodd" fill-opacity="1"/>
<defs>
  <clipPath id="clip081">
    <rect x="480" y="0" width="1681" height="1600"/>
  </clipPath>
</defs>
<path clip-path="url(#clip080)" d="M234.125 1423.18 L2352.76 1423.18 L2352.76 47.2441 L234.125 47.2441  Z" fill="#ffffff" fill-rule="evenodd" fill-opacity="1"/>
<defs>
  <clipPath id="clip082">
    <rect x="234" y="47" width="2120" height="1377"/>
  </clipPath>
</defs>
<polyline clip-path="url(#clip082)" style="stroke:#000000; stroke-linecap:round; stroke-linejoin:round; stroke-width:2; stroke-opacity:0.1; fill:none" points="405.126,1423.18 405.126,47.2441 "/>
<polyline clip-path="url(#clip082)" style="stroke:#000000; stroke-linecap:round; stroke-linejoin:round; stroke-width:2; stroke-opacity:0.1; fill:none" points="881.009,1423.18 881.009,47.2441 "/>
<polyline clip-path="url(#clip082)" style="stroke:#000000; stroke-linecap:round; stroke-linejoin:round; stroke-width:2; stroke-opacity:0.1; fill:none" points="1372.75,1423.18 1372.75,47.2441 "/>
<polyline clip-path="url(#clip082)" style="stroke:#000000; stroke-linecap:round; stroke-linejoin:round; stroke-width:2; stroke-opacity:0.1; fill:none" points="1848.64,1423.18 1848.64,47.2441 "/>
<polyline clip-path="url(#clip082)" style="stroke:#000000; stroke-linecap:round; stroke-linejoin:round; stroke-width:2; stroke-opacity:0.1; fill:none" points="2340.38,1423.18 2340.38,47.2441 "/>
<polyline clip-path="url(#clip080)" style="stroke:#000000; stroke-linecap:round; stroke-linejoin:round; stroke-width:4; stroke-opacity:1; fill:none" points="234.125,1423.18 2352.76,1423.18 "/>
<polyline clip-path="url(#clip080)" style="stroke:#000000; stroke-linecap:round; stroke-linejoin:round; stroke-width:4; stroke-opacity:1; fill:none" points="405.126,1423.18 405.126,1404.28 "/>
<polyline clip-path="url(#clip080)" style="stroke:#000000; stroke-linecap:round; stroke-linejoin:round; stroke-width:4; stroke-opacity:1; fill:none" points="881.009,1423.18 881.009,1404.28 "/>
<polyline clip-path="url(#clip080)" style="stroke:#000000; stroke-linecap:round; stroke-linejoin:round; stroke-width:4; stroke-opacity:1; fill:none" points="1372.75,1423.18 1372.75,1404.28 "/>
<polyline clip-path="url(#clip080)" style="stroke:#000000; stroke-linecap:round; stroke-linejoin:round; stroke-width:4; stroke-opacity:1; fill:none" points="1848.64,1423.18 1848.64,1404.28 "/>
<polyline clip-path="url(#clip080)" style="stroke:#000000; stroke-linecap:round; stroke-linejoin:round; stroke-width:4; stroke-opacity:1; fill:none" points="2340.38,1423.18 2340.38,1404.28 "/>
<path clip-path="url(#clip080)" d="M272.835 1481.64 L280.474 1481.64 L280.474 1455.28 L272.164 1456.95 L272.164 1452.69 L280.428 1451.02 L285.104 1451.02 L285.104 1481.64 L292.742 1481.64 L292.742 1485.58 L272.835 1485.58 L272.835 1481.64 Z" fill="#000000" fill-rule="nonzero" fill-opacity="1" /><path clip-path="url(#clip080)" d="M302.326 1484.86 L302.326 1480.6 Q304.085 1481.44 305.89 1481.88 Q307.696 1482.32 309.432 1482.32 Q314.062 1482.32 316.492 1479.21 Q318.946 1476.09 319.293 1469.75 Q317.951 1471.74 315.89 1472.8 Q313.83 1473.87 311.33 1473.87 Q306.145 1473.87 303.113 1470.74 Q300.103 1467.59 300.103 1462.15 Q300.103 1456.83 303.252 1453.61 Q306.4 1450.39 311.631 1450.39 Q317.626 1450.39 320.775 1455 Q323.946 1459.58 323.946 1468.33 Q323.946 1476.51 320.057 1481.39 Q316.191 1486.25 309.64 1486.25 Q307.881 1486.25 306.076 1485.9 Q304.27 1485.56 302.326 1484.86 M311.631 1470.21 Q314.779 1470.21 316.608 1468.06 Q318.46 1465.9 318.46 1462.15 Q318.46 1458.43 316.608 1456.27 Q314.779 1454.1 311.631 1454.1 Q308.483 1454.1 306.631 1456.27 Q304.802 1458.43 304.802 1462.15 Q304.802 1465.9 306.631 1468.06 Q308.483 1470.21 311.631 1470.21 Z" fill="#000000" fill-rule="nonzero" fill-opacity="1" /><path clip-path="url(#clip080)" d="M332.395 1451.02 L350.751 1451.02 L350.751 1454.96 L336.677 1454.96 L336.677 1463.43 Q337.696 1463.08 338.714 1462.92 Q339.733 1462.73 340.751 1462.73 Q346.538 1462.73 349.918 1465.9 Q353.298 1469.08 353.298 1474.49 Q353.298 1480.07 349.825 1483.17 Q346.353 1486.25 340.034 1486.25 Q337.858 1486.25 335.589 1485.88 Q333.344 1485.51 330.937 1484.77 L330.937 1480.07 Q333.02 1481.2 335.242 1481.76 Q337.464 1482.32 339.941 1482.32 Q343.946 1482.32 346.284 1480.21 Q348.622 1478.1 348.622 1474.49 Q348.622 1470.88 346.284 1468.77 Q343.946 1466.67 339.941 1466.67 Q338.066 1466.67 336.191 1467.08 Q334.339 1467.5 332.395 1468.38 L332.395 1451.02 Z" fill="#000000" fill-rule="nonzero" fill-opacity="1" /><path clip-path="url(#clip080)" d="M361.33 1451.02 L383.552 1451.02 L383.552 1453.01 L371.006 1485.58 L366.122 1485.58 L377.927 1454.96 L361.33 1454.96 L361.33 1451.02 Z" fill="#000000" fill-rule="nonzero" fill-opacity="1" /><path clip-path="url(#clip080)" d="M389.918 1470.7 L402.395 1470.7 L402.395 1474.49 L389.918 1474.49 L389.918 1470.7 Z" fill="#000000" fill-rule="nonzero" fill-opacity="1" /><path clip-path="url(#clip080)" d="M419.779 1454.1 Q416.168 1454.1 414.339 1457.66 Q412.533 1461.2 412.533 1468.33 Q412.533 1475.44 414.339 1479.01 Q416.168 1482.55 419.779 1482.55 Q423.413 1482.55 425.219 1479.01 Q427.047 1475.44 427.047 1468.33 Q427.047 1461.2 425.219 1457.66 Q423.413 1454.1 419.779 1454.1 M419.779 1450.39 Q425.589 1450.39 428.644 1455 Q431.723 1459.58 431.723 1468.33 Q431.723 1477.06 428.644 1481.67 Q425.589 1486.25 419.779 1486.25 Q413.969 1486.25 410.89 1481.67 Q407.834 1477.06 407.834 1468.33 Q407.834 1459.58 410.89 1455 Q413.969 1450.39 419.779 1450.39 Z" fill="#000000" fill-rule="nonzero" fill-opacity="1" /><path clip-path="url(#clip080)" d="M440.08 1484.86 L440.08 1480.6 Q441.839 1481.44 443.644 1481.88 Q445.45 1482.32 447.186 1482.32 Q451.816 1482.32 454.246 1479.21 Q456.7 1476.09 457.047 1469.75 Q455.704 1471.74 453.644 1472.8 Q451.584 1473.87 449.084 1473.87 Q443.899 1473.87 440.867 1470.74 Q437.857 1467.59 437.857 1462.15 Q437.857 1456.83 441.005 1453.61 Q444.154 1450.39 449.385 1450.39 Q455.38 1450.39 458.529 1455 Q461.7 1459.58 461.7 1468.33 Q461.7 1476.51 457.811 1481.39 Q453.945 1486.25 447.394 1486.25 Q445.635 1486.25 443.83 1485.9 Q442.024 1485.56 440.08 1484.86 M449.385 1470.21 Q452.533 1470.21 454.362 1468.06 Q456.214 1465.9 456.214 1462.15 Q456.214 1458.43 454.362 1456.27 Q452.533 1454.1 449.385 1454.1 Q446.237 1454.1 444.385 1456.27 Q442.556 1458.43 442.556 1462.15 Q442.556 1465.9 444.385 1468.06 Q446.237 1470.21 449.385 1470.21 Z" fill="#000000" fill-rule="nonzero" fill-opacity="1" /><path clip-path="url(#clip080)" d="M467.348 1470.7 L479.825 1470.7 L479.825 1474.49 L467.348 1474.49 L467.348 1470.7 Z" fill="#000000" fill-rule="nonzero" fill-opacity="1" /><path clip-path="url(#clip080)" d="M497.209 1454.1 Q493.598 1454.1 491.769 1457.66 Q489.964 1461.2 489.964 1468.33 Q489.964 1475.44 491.769 1479.01 Q493.598 1482.55 497.209 1482.55 Q500.843 1482.55 502.649 1479.01 Q504.477 1475.44 504.477 1468.33 Q504.477 1461.2 502.649 1457.66 Q500.843 1454.1 497.209 1454.1 M497.209 1450.39 Q503.019 1450.39 506.075 1455 Q509.153 1459.58 509.153 1468.33 Q509.153 1477.06 506.075 1481.67 Q503.019 1486.25 497.209 1486.25 Q491.399 1486.25 488.32 1481.67 Q485.264 1477.06 485.264 1468.33 Q485.264 1459.58 488.32 1455 Q491.399 1450.39 497.209 1450.39 Z" fill="#000000" fill-rule="nonzero" fill-opacity="1" /><path clip-path="url(#clip080)" d="M518.181 1481.64 L525.82 1481.64 L525.82 1455.28 L517.51 1456.95 L517.51 1452.69 L525.774 1451.02 L530.449 1451.02 L530.449 1481.64 L538.088 1481.64 L538.088 1485.58 L518.181 1485.58 L518.181 1481.64 Z" fill="#000000" fill-rule="nonzero" fill-opacity="1" /><path clip-path="url(#clip080)" d="M748.718 1481.64 L756.357 1481.64 L756.357 1455.28 L748.047 1456.95 L748.047 1452.69 L756.31 1451.02 L760.986 1451.02 L760.986 1481.64 L768.625 1481.64 L768.625 1485.58 L748.718 1485.58 L748.718 1481.64 Z" fill="#000000" fill-rule="nonzero" fill-opacity="1" /><path clip-path="url(#clip080)" d="M778.208 1484.86 L778.208 1480.6 Q779.968 1481.44 781.773 1481.88 Q783.579 1482.32 785.315 1482.32 Q789.945 1482.32 792.375 1479.21 Q794.829 1476.09 795.176 1469.75 Q793.833 1471.74 791.773 1472.8 Q789.713 1473.87 787.213 1473.87 Q782.028 1473.87 778.996 1470.74 Q775.986 1467.59 775.986 1462.15 Q775.986 1456.83 779.134 1453.61 Q782.283 1450.39 787.514 1450.39 Q793.509 1450.39 796.657 1455 Q799.829 1459.58 799.829 1468.33 Q799.829 1476.51 795.94 1481.39 Q792.074 1486.25 785.523 1486.25 Q783.764 1486.25 781.958 1485.9 Q780.153 1485.56 778.208 1484.86 M787.514 1470.21 Q790.662 1470.21 792.491 1468.06 Q794.343 1465.9 794.343 1462.15 Q794.343 1458.43 792.491 1456.27 Q790.662 1454.1 787.514 1454.1 Q784.366 1454.1 782.514 1456.27 Q780.685 1458.43 780.685 1462.15 Q780.685 1465.9 782.514 1468.06 Q784.366 1470.21 787.514 1470.21 Z" fill="#000000" fill-rule="nonzero" fill-opacity="1" /><path clip-path="url(#clip080)" d="M808.278 1451.02 L826.634 1451.02 L826.634 1454.96 L812.56 1454.96 L812.56 1463.43 Q813.579 1463.08 814.597 1462.92 Q815.616 1462.73 816.634 1462.73 Q822.421 1462.73 825.801 1465.9 Q829.18 1469.08 829.18 1474.49 Q829.18 1480.07 825.708 1483.17 Q822.236 1486.25 815.917 1486.25 Q813.741 1486.25 811.472 1485.88 Q809.227 1485.51 806.819 1484.77 L806.819 1480.07 Q808.903 1481.2 811.125 1481.76 Q813.347 1482.32 815.824 1482.32 Q819.829 1482.32 822.167 1480.21 Q824.505 1478.1 824.505 1474.49 Q824.505 1470.88 822.167 1468.77 Q819.829 1466.67 815.824 1466.67 Q813.949 1466.67 812.074 1467.08 Q810.222 1467.5 808.278 1468.38 L808.278 1451.02 Z" fill="#000000" fill-rule="nonzero" fill-opacity="1" /><path clip-path="url(#clip080)" d="M837.213 1451.02 L859.435 1451.02 L859.435 1453.01 L846.889 1485.58 L842.004 1485.58 L853.81 1454.96 L837.213 1454.96 L837.213 1451.02 Z" fill="#000000" fill-rule="nonzero" fill-opacity="1" /><path clip-path="url(#clip080)" d="M865.801 1470.7 L878.277 1470.7 L878.277 1474.49 L865.801 1474.49 L865.801 1470.7 Z" fill="#000000" fill-rule="nonzero" fill-opacity="1" /><path clip-path="url(#clip080)" d="M886.472 1481.64 L894.111 1481.64 L894.111 1455.28 L885.801 1456.95 L885.801 1452.69 L894.064 1451.02 L898.74 1451.02 L898.74 1481.64 L906.379 1481.64 L906.379 1485.58 L886.472 1485.58 L886.472 1481.64 Z" fill="#000000" fill-rule="nonzero" fill-opacity="1" /><path clip-path="url(#clip080)" d="M925.823 1454.1 Q922.212 1454.1 920.384 1457.66 Q918.578 1461.2 918.578 1468.33 Q918.578 1475.44 920.384 1479.01 Q922.212 1482.55 925.823 1482.55 Q929.458 1482.55 931.263 1479.01 Q933.092 1475.44 933.092 1468.33 Q933.092 1461.2 931.263 1457.66 Q929.458 1454.1 925.823 1454.1 M925.823 1450.39 Q931.634 1450.39 934.689 1455 Q937.768 1459.58 937.768 1468.33 Q937.768 1477.06 934.689 1481.67 Q931.634 1486.25 925.823 1486.25 Q920.013 1486.25 916.935 1481.67 Q913.879 1477.06 913.879 1468.33 Q913.879 1459.58 916.935 1455 Q920.013 1450.39 925.823 1450.39 Z" fill="#000000" fill-rule="nonzero" fill-opacity="1" /><path clip-path="url(#clip080)" d="M943.231 1470.7 L955.708 1470.7 L955.708 1474.49 L943.231 1474.49 L943.231 1470.7 Z" fill="#000000" fill-rule="nonzero" fill-opacity="1" /><path clip-path="url(#clip080)" d="M973.092 1454.1 Q969.481 1454.1 967.652 1457.66 Q965.846 1461.2 965.846 1468.33 Q965.846 1475.44 967.652 1479.01 Q969.481 1482.55 973.092 1482.55 Q976.726 1482.55 978.531 1479.01 Q980.36 1475.44 980.36 1468.33 Q980.36 1461.2 978.531 1457.66 Q976.726 1454.1 973.092 1454.1 M973.092 1450.39 Q978.902 1450.39 981.957 1455 Q985.036 1459.58 985.036 1468.33 Q985.036 1477.06 981.957 1481.67 Q978.902 1486.25 973.092 1486.25 Q967.282 1486.25 964.203 1481.67 Q961.147 1477.06 961.147 1468.33 Q961.147 1459.58 964.203 1455 Q967.282 1450.39 973.092 1450.39 Z" fill="#000000" fill-rule="nonzero" fill-opacity="1" /><path clip-path="url(#clip080)" d="M994.064 1481.64 L1001.7 1481.64 L1001.7 1455.28 L993.393 1456.95 L993.393 1452.69 L1001.66 1451.02 L1006.33 1451.02 L1006.33 1481.64 L1013.97 1481.64 L1013.97 1485.58 L994.064 1485.58 L994.064 1481.64 Z" fill="#000000" fill-rule="nonzero" fill-opacity="1" /><path clip-path="url(#clip080)" d="M1240.46 1481.64 L1248.1 1481.64 L1248.1 1455.28 L1239.79 1456.95 L1239.79 1452.69 L1248.06 1451.02 L1252.73 1451.02 L1252.73 1481.64 L1260.37 1481.64 L1260.37 1485.58 L1240.46 1485.58 L1240.46 1481.64 Z" fill="#000000" fill-rule="nonzero" fill-opacity="1" /><path clip-path="url(#clip080)" d="M1269.95 1484.86 L1269.95 1480.6 Q1271.71 1481.44 1273.52 1481.88 Q1275.32 1482.32 1277.06 1482.32 Q1281.69 1482.32 1284.12 1479.21 Q1286.57 1476.09 1286.92 1469.75 Q1285.58 1471.74 1283.52 1472.8 Q1281.46 1473.87 1278.96 1473.87 Q1273.77 1473.87 1270.74 1470.74 Q1267.73 1467.59 1267.73 1462.15 Q1267.73 1456.83 1270.88 1453.61 Q1274.03 1450.39 1279.26 1450.39 Q1285.25 1450.39 1288.4 1455 Q1291.57 1459.58 1291.57 1468.33 Q1291.57 1476.51 1287.69 1481.39 Q1283.82 1486.25 1277.27 1486.25 Q1275.51 1486.25 1273.7 1485.9 Q1271.9 1485.56 1269.95 1484.86 M1279.26 1470.21 Q1282.41 1470.21 1284.24 1468.06 Q1286.09 1465.9 1286.09 1462.15 Q1286.09 1458.43 1284.24 1456.27 Q1282.41 1454.1 1279.26 1454.1 Q1276.11 1454.1 1274.26 1456.27 Q1272.43 1458.43 1272.43 1462.15 Q1272.43 1465.9 1274.26 1468.06 Q1276.11 1470.21 1279.26 1470.21 Z" fill="#000000" fill-rule="nonzero" fill-opacity="1" /><path clip-path="url(#clip080)" d="M1300.02 1451.02 L1318.38 1451.02 L1318.38 1454.96 L1304.31 1454.96 L1304.31 1463.43 Q1305.32 1463.08 1306.34 1462.92 Q1307.36 1462.73 1308.38 1462.73 Q1314.17 1462.73 1317.55 1465.9 Q1320.93 1469.08 1320.93 1474.49 Q1320.93 1480.07 1317.45 1483.17 Q1313.98 1486.25 1307.66 1486.25 Q1305.49 1486.25 1303.22 1485.88 Q1300.97 1485.51 1298.57 1484.77 L1298.57 1480.07 Q1300.65 1481.2 1302.87 1481.76 Q1305.09 1482.32 1307.57 1482.32 Q1311.57 1482.32 1313.91 1480.21 Q1316.25 1478.1 1316.25 1474.49 Q1316.25 1470.88 1313.91 1468.77 Q1311.57 1466.67 1307.57 1466.67 Q1305.69 1466.67 1303.82 1467.08 Q1301.97 1467.5 1300.02 1468.38 L1300.02 1451.02 Z" fill="#000000" fill-rule="nonzero" fill-opacity="1" /><path clip-path="url(#clip080)" d="M1328.96 1451.02 L1351.18 1451.02 L1351.18 1453.01 L1338.63 1485.58 L1333.75 1485.58 L1345.56 1454.96 L1328.96 1454.96 L1328.96 1451.02 Z" fill="#000000" fill-rule="nonzero" fill-opacity="1" /><path clip-path="url(#clip080)" d="M1357.55 1470.7 L1370.02 1470.7 L1370.02 1474.49 L1357.55 1474.49 L1357.55 1470.7 Z" fill="#000000" fill-rule="nonzero" fill-opacity="1" /><path clip-path="url(#clip080)" d="M1378.22 1481.64 L1385.86 1481.64 L1385.86 1455.28 L1377.55 1456.95 L1377.55 1452.69 L1385.81 1451.02 L1390.49 1451.02 L1390.49 1481.64 L1398.12 1481.64 L1398.12 1485.58 L1378.22 1485.58 L1378.22 1481.64 Z" fill="#000000" fill-rule="nonzero" fill-opacity="1" /><path clip-path="url(#clip080)" d="M1408.38 1481.64 L1416.02 1481.64 L1416.02 1455.28 L1407.71 1456.95 L1407.71 1452.69 L1415.97 1451.02 L1420.65 1451.02 L1420.65 1481.64 L1428.29 1481.64 L1428.29 1485.58 L1408.38 1485.58 L1408.38 1481.64 Z" fill="#000000" fill-rule="nonzero" fill-opacity="1" /><path clip-path="url(#clip080)" d="M1434.98 1470.7 L1447.45 1470.7 L1447.45 1474.49 L1434.98 1474.49 L1434.98 1470.7 Z" fill="#000000" fill-rule="nonzero" fill-opacity="1" /><path clip-path="url(#clip080)" d="M1464.84 1454.1 Q1461.23 1454.1 1459.4 1457.66 Q1457.59 1461.2 1457.59 1468.33 Q1457.59 1475.44 1459.4 1479.01 Q1461.23 1482.55 1464.84 1482.55 Q1468.47 1482.55 1470.28 1479.01 Q1472.11 1475.44 1472.11 1468.33 Q1472.11 1461.2 1470.28 1457.66 Q1468.47 1454.1 1464.84 1454.1 M1464.84 1450.39 Q1470.65 1450.39 1473.7 1455 Q1476.78 1459.58 1476.78 1468.33 Q1476.78 1477.06 1473.7 1481.67 Q1470.65 1486.25 1464.84 1486.25 Q1459.03 1486.25 1455.95 1481.67 Q1452.89 1477.06 1452.89 1468.33 Q1452.89 1459.58 1455.95 1455 Q1459.03 1450.39 1464.84 1450.39 Z" fill="#000000" fill-rule="nonzero" fill-opacity="1" /><path clip-path="url(#clip080)" d="M1485.81 1481.64 L1493.45 1481.64 L1493.45 1455.28 L1485.14 1456.95 L1485.14 1452.69 L1493.4 1451.02 L1498.08 1451.02 L1498.08 1481.64 L1505.72 1481.64 L1505.72 1485.58 L1485.81 1485.58 L1485.81 1481.64 Z" fill="#000000" fill-rule="nonzero" fill-opacity="1" /><path clip-path="url(#clip080)" d="M1716.35 1481.64 L1723.99 1481.64 L1723.99 1455.28 L1715.68 1456.95 L1715.68 1452.69 L1723.94 1451.02 L1728.61 1451.02 L1728.61 1481.64 L1736.25 1481.64 L1736.25 1485.58 L1716.35 1485.58 L1716.35 1481.64 Z" fill="#000000" fill-rule="nonzero" fill-opacity="1" /><path clip-path="url(#clip080)" d="M1745.84 1484.86 L1745.84 1480.6 Q1747.6 1481.44 1749.4 1481.88 Q1751.21 1482.32 1752.94 1482.32 Q1757.57 1482.32 1760 1479.21 Q1762.46 1476.09 1762.8 1469.75 Q1761.46 1471.74 1759.4 1472.8 Q1757.34 1473.87 1754.84 1473.87 Q1749.66 1473.87 1746.62 1470.74 Q1743.61 1467.59 1743.61 1462.15 Q1743.61 1456.83 1746.76 1453.61 Q1749.91 1450.39 1755.14 1450.39 Q1761.14 1450.39 1764.29 1455 Q1767.46 1459.58 1767.46 1468.33 Q1767.46 1476.51 1763.57 1481.39 Q1759.7 1486.25 1753.15 1486.25 Q1751.39 1486.25 1749.59 1485.9 Q1747.78 1485.56 1745.84 1484.86 M1755.14 1470.21 Q1758.29 1470.21 1760.12 1468.06 Q1761.97 1465.9 1761.97 1462.15 Q1761.97 1458.43 1760.12 1456.27 Q1758.29 1454.1 1755.14 1454.1 Q1751.99 1454.1 1750.14 1456.27 Q1748.31 1458.43 1748.31 1462.15 Q1748.31 1465.9 1750.14 1468.06 Q1751.99 1470.21 1755.14 1470.21 Z" fill="#000000" fill-rule="nonzero" fill-opacity="1" /><path clip-path="url(#clip080)" d="M1775.91 1451.02 L1794.26 1451.02 L1794.26 1454.96 L1780.19 1454.96 L1780.19 1463.43 Q1781.21 1463.08 1782.23 1462.92 Q1783.24 1462.73 1784.26 1462.73 Q1790.05 1462.73 1793.43 1465.9 Q1796.81 1469.08 1796.81 1474.49 Q1796.81 1480.07 1793.34 1483.17 Q1789.86 1486.25 1783.55 1486.25 Q1781.37 1486.25 1779.1 1485.88 Q1776.86 1485.51 1774.45 1484.77 L1774.45 1480.07 Q1776.53 1481.2 1778.75 1481.76 Q1780.98 1482.32 1783.45 1482.32 Q1787.46 1482.32 1789.8 1480.21 Q1792.13 1478.1 1792.13 1474.49 Q1792.13 1470.88 1789.8 1468.77 Q1787.46 1466.67 1783.45 1466.67 Q1781.58 1466.67 1779.7 1467.08 Q1777.85 1467.5 1775.91 1468.38 L1775.91 1451.02 Z" fill="#000000" fill-rule="nonzero" fill-opacity="1" /><path clip-path="url(#clip080)" d="M1804.84 1451.02 L1827.06 1451.02 L1827.06 1453.01 L1814.52 1485.58 L1809.63 1485.58 L1821.44 1454.96 L1804.84 1454.96 L1804.84 1451.02 Z" fill="#000000" fill-rule="nonzero" fill-opacity="1" /><path clip-path="url(#clip080)" d="M1833.43 1470.7 L1845.91 1470.7 L1845.91 1474.49 L1833.43 1474.49 L1833.43 1470.7 Z" fill="#000000" fill-rule="nonzero" fill-opacity="1" /><path clip-path="url(#clip080)" d="M1854.1 1481.64 L1861.74 1481.64 L1861.74 1455.28 L1853.43 1456.95 L1853.43 1452.69 L1861.69 1451.02 L1866.37 1451.02 L1866.37 1481.64 L1874.01 1481.64 L1874.01 1485.58 L1854.1 1485.58 L1854.1 1481.64 Z" fill="#000000" fill-rule="nonzero" fill-opacity="1" /><path clip-path="url(#clip080)" d="M1887.48 1481.64 L1903.8 1481.64 L1903.8 1485.58 L1881.85 1485.58 L1881.85 1481.64 Q1884.52 1478.89 1889.1 1474.26 Q1893.71 1469.61 1894.89 1468.27 Q1897.13 1465.74 1898.01 1464.01 Q1898.91 1462.25 1898.91 1460.56 Q1898.91 1457.8 1896.97 1456.07 Q1895.05 1454.33 1891.95 1454.33 Q1889.75 1454.33 1887.29 1455.09 Q1884.86 1455.86 1882.09 1457.41 L1882.09 1452.69 Q1884.91 1451.55 1887.36 1450.97 Q1889.82 1450.39 1891.85 1450.39 Q1897.23 1450.39 1900.42 1453.08 Q1903.61 1455.77 1903.61 1460.26 Q1903.61 1462.39 1902.8 1464.31 Q1902.02 1466.2 1899.91 1468.8 Q1899.33 1469.47 1896.23 1472.69 Q1893.13 1475.88 1887.48 1481.64 Z" fill="#000000" fill-rule="nonzero" fill-opacity="1" /><path clip-path="url(#clip080)" d="M1910.86 1470.7 L1923.34 1470.7 L1923.34 1474.49 L1910.86 1474.49 L1910.86 1470.7 Z" fill="#000000" fill-rule="nonzero" fill-opacity="1" /><path clip-path="url(#clip080)" d="M1940.72 1454.1 Q1937.11 1454.1 1935.28 1457.66 Q1933.47 1461.2 1933.47 1468.33 Q1933.47 1475.44 1935.28 1479.01 Q1937.11 1482.55 1940.72 1482.55 Q1944.35 1482.55 1946.16 1479.01 Q1947.99 1475.44 1947.99 1468.33 Q1947.99 1461.2 1946.16 1457.66 Q1944.35 1454.1 1940.72 1454.1 M1940.72 1450.39 Q1946.53 1450.39 1949.59 1455 Q1952.66 1459.58 1952.66 1468.33 Q1952.66 1477.06 1949.59 1481.67 Q1946.53 1486.25 1940.72 1486.25 Q1934.91 1486.25 1931.83 1481.67 Q1928.78 1477.06 1928.78 1468.33 Q1928.78 1459.58 1931.83 1455 Q1934.91 1450.39 1940.72 1450.39 Z" fill="#000000" fill-rule="nonzero" fill-opacity="1" /><path clip-path="url(#clip080)" d="M1961.69 1481.64 L1969.33 1481.64 L1969.33 1455.28 L1961.02 1456.95 L1961.02 1452.69 L1969.28 1451.02 L1973.96 1451.02 L1973.96 1481.64 L1981.6 1481.64 L1981.6 1485.58 L1961.69 1485.58 L1961.69 1481.64 Z" fill="#000000" fill-rule="nonzero" fill-opacity="1" /><path clip-path="url(#clip080)" d="M2208.09 1481.64 L2215.73 1481.64 L2215.73 1455.28 L2207.42 1456.95 L2207.42 1452.69 L2215.68 1451.02 L2220.36 1451.02 L2220.36 1481.64 L2228 1481.64 L2228 1485.58 L2208.09 1485.58 L2208.09 1481.64 Z" fill="#000000" fill-rule="nonzero" fill-opacity="1" /><path clip-path="url(#clip080)" d="M2237.58 1484.86 L2237.58 1480.6 Q2239.34 1481.44 2241.15 1481.88 Q2242.95 1482.32 2244.69 1482.32 Q2249.32 1482.32 2251.75 1479.21 Q2254.2 1476.09 2254.55 1469.75 Q2253.21 1471.74 2251.15 1472.8 Q2249.09 1473.87 2246.59 1473.87 Q2241.4 1473.87 2238.37 1470.74 Q2235.36 1467.59 2235.36 1462.15 Q2235.36 1456.83 2238.51 1453.61 Q2241.66 1450.39 2246.89 1450.39 Q2252.88 1450.39 2256.03 1455 Q2259.2 1459.58 2259.2 1468.33 Q2259.2 1476.51 2255.31 1481.39 Q2251.45 1486.25 2244.9 1486.25 Q2243.14 1486.25 2241.33 1485.9 Q2239.53 1485.56 2237.58 1484.86 M2246.89 1470.21 Q2250.04 1470.21 2251.86 1468.06 Q2253.72 1465.9 2253.72 1462.15 Q2253.72 1458.43 2251.86 1456.27 Q2250.04 1454.1 2246.89 1454.1 Q2243.74 1454.1 2241.89 1456.27 Q2240.06 1458.43 2240.06 1462.15 Q2240.06 1465.9 2241.89 1468.06 Q2243.74 1470.21 2246.89 1470.21 Z" fill="#000000" fill-rule="nonzero" fill-opacity="1" /><path clip-path="url(#clip080)" d="M2267.65 1451.02 L2286.01 1451.02 L2286.01 1454.96 L2271.93 1454.96 L2271.93 1463.43 Q2272.95 1463.08 2273.97 1462.92 Q2274.99 1462.73 2276.01 1462.73 Q2281.8 1462.73 2285.17 1465.9 Q2288.55 1469.08 2288.55 1474.49 Q2288.55 1480.07 2285.08 1483.17 Q2281.61 1486.25 2275.29 1486.25 Q2273.11 1486.25 2270.85 1485.88 Q2268.6 1485.51 2266.19 1484.77 L2266.19 1480.07 Q2268.28 1481.2 2270.5 1481.76 Q2272.72 1482.32 2275.2 1482.32 Q2279.2 1482.32 2281.54 1480.21 Q2283.88 1478.1 2283.88 1474.49 Q2283.88 1470.88 2281.54 1468.77 Q2279.2 1466.67 2275.2 1466.67 Q2273.32 1466.67 2271.45 1467.08 Q2269.6 1467.5 2267.65 1468.38 L2267.65 1451.02 Z" fill="#000000" fill-rule="nonzero" fill-opacity="1" /><path clip-path="url(#clip080)" d="M2307.77 1469.17 Q2304.43 1469.17 2302.51 1470.95 Q2300.61 1472.73 2300.61 1475.86 Q2300.61 1478.98 2302.51 1480.77 Q2304.43 1482.55 2307.77 1482.55 Q2311.1 1482.55 2313.02 1480.77 Q2314.94 1478.96 2314.94 1475.86 Q2314.94 1472.73 2313.02 1470.95 Q2311.12 1469.17 2307.77 1469.17 M2303.09 1467.18 Q2300.08 1466.44 2298.39 1464.38 Q2296.73 1462.32 2296.73 1459.35 Q2296.73 1455.21 2299.67 1452.8 Q2302.63 1450.39 2307.77 1450.39 Q2312.93 1450.39 2315.87 1452.8 Q2318.81 1455.21 2318.81 1459.35 Q2318.81 1462.32 2317.12 1464.38 Q2315.45 1466.44 2312.47 1467.18 Q2315.85 1467.96 2317.72 1470.26 Q2319.62 1472.55 2319.62 1475.86 Q2319.62 1480.88 2316.54 1483.57 Q2313.48 1486.25 2307.77 1486.25 Q2302.05 1486.25 2298.97 1483.57 Q2295.92 1480.88 2295.92 1475.86 Q2295.92 1472.55 2297.81 1470.26 Q2299.71 1467.96 2303.09 1467.18 M2301.38 1459.79 Q2301.38 1462.48 2303.05 1463.98 Q2304.73 1465.49 2307.77 1465.49 Q2310.78 1465.49 2312.47 1463.98 Q2314.18 1462.48 2314.18 1459.79 Q2314.18 1457.11 2312.47 1455.6 Q2310.78 1454.1 2307.77 1454.1 Q2304.73 1454.1 2303.05 1455.6 Q2301.38 1457.11 2301.38 1459.79 Z" fill="#000000" fill-rule="nonzero" fill-opacity="1" /><path clip-path="url(#clip080)" d="M2325.17 1470.7 L2337.65 1470.7 L2337.65 1474.49 L2325.17 1474.49 L2325.17 1470.7 Z" fill="#000000" fill-rule="nonzero" fill-opacity="1" /><path clip-path="url(#clip080)" d="M2355.04 1454.1 Q2351.42 1454.1 2349.6 1457.66 Q2347.79 1461.2 2347.79 1468.33 Q2347.79 1475.44 2349.6 1479.01 Q2351.42 1482.55 2355.04 1482.55 Q2358.67 1482.55 2360.48 1479.01 Q2362.3 1475.44 2362.3 1468.33 Q2362.3 1461.2 2360.48 1457.66 Q2358.67 1454.1 2355.04 1454.1 M2355.04 1450.39 Q2360.85 1450.39 2363.9 1455 Q2366.98 1459.58 2366.98 1468.33 Q2366.98 1477.06 2363.9 1481.67 Q2360.85 1486.25 2355.04 1486.25 Q2349.23 1486.25 2346.15 1481.67 Q2343.09 1477.06 2343.09 1468.33 Q2343.09 1459.58 2346.15 1455 Q2349.23 1450.39 2355.04 1450.39 Z" fill="#000000" fill-rule="nonzero" fill-opacity="1" /><path clip-path="url(#clip080)" d="M2376.01 1481.64 L2383.65 1481.64 L2383.65 1455.28 L2375.34 1456.95 L2375.34 1452.69 L2383.6 1451.02 L2388.28 1451.02 L2388.28 1481.64 L2395.92 1481.64 L2395.92 1485.58 L2376.01 1485.58 L2376.01 1481.64 Z" fill="#000000" fill-rule="nonzero" fill-opacity="1" /><path clip-path="url(#clip080)" d="M2402.6 1470.7 L2415.08 1470.7 L2415.08 1474.49 L2402.6 1474.49 L2402.6 1470.7 Z" fill="#000000" fill-rule="nonzero" fill-opacity="1" /><path clip-path="url(#clip080)" d="M2432.47 1454.1 Q2428.85 1454.1 2427.03 1457.66 Q2425.22 1461.2 2425.22 1468.33 Q2425.22 1475.44 2427.03 1479.01 Q2428.85 1482.55 2432.47 1482.55 Q2436.1 1482.55 2437.91 1479.01 Q2439.73 1475.44 2439.73 1468.33 Q2439.73 1461.2 2437.91 1457.66 Q2436.1 1454.1 2432.47 1454.1 M2432.47 1450.39 Q2438.28 1450.39 2441.33 1455 Q2444.41 1459.58 2444.41 1468.33 Q2444.41 1477.06 2441.33 1481.67 Q2438.28 1486.25 2432.47 1486.25 Q2426.66 1486.25 2423.58 1481.67 Q2420.52 1477.06 2420.52 1468.33 Q2420.52 1459.58 2423.58 1455 Q2426.66 1450.39 2432.47 1450.39 Z" fill="#000000" fill-rule="nonzero" fill-opacity="1" /><path clip-path="url(#clip080)" d="M2453.44 1481.64 L2461.08 1481.64 L2461.08 1455.28 L2452.77 1456.95 L2452.77 1452.69 L2461.03 1451.02 L2465.71 1451.02 L2465.71 1481.64 L2473.35 1481.64 L2473.35 1485.58 L2453.44 1485.58 L2453.44 1481.64 Z" fill="#000000" fill-rule="nonzero" fill-opacity="1" /><path clip-path="url(#clip080)" d="M1226.9 1525.81 L1226.9 1562.76 L1234.67 1562.76 Q1244.5 1562.76 1249.06 1558.3 Q1253.64 1553.85 1253.64 1544.24 Q1253.64 1534.69 1249.06 1530.26 Q1244.5 1525.81 1234.67 1525.81 L1226.9 1525.81 M1220.47 1520.52 L1233.68 1520.52 Q1247.5 1520.52 1253.96 1526.28 Q1260.42 1532.01 1260.42 1544.24 Q1260.42 1556.52 1253.93 1562.28 Q1247.43 1568.04 1233.68 1568.04 L1220.47 1568.04 L1220.47 1520.52 Z" fill="#000000" fill-rule="nonzero" fill-opacity="1" /><path clip-path="url(#clip080)" d="M1286.61 1550.12 Q1279.52 1550.12 1276.78 1551.75 Q1274.04 1553.37 1274.04 1557.29 Q1274.04 1560.4 1276.08 1562.25 Q1278.15 1564.07 1281.68 1564.07 Q1286.55 1564.07 1289.48 1560.63 Q1292.44 1557.16 1292.44 1551.43 L1292.44 1550.12 L1286.61 1550.12 M1298.29 1547.71 L1298.29 1568.04 L1292.44 1568.04 L1292.44 1562.63 Q1290.43 1565.88 1287.44 1567.44 Q1284.45 1568.97 1280.12 1568.97 Q1274.65 1568.97 1271.4 1565.91 Q1268.18 1562.82 1268.18 1557.67 Q1268.18 1551.65 1272.2 1548.6 Q1276.24 1545.54 1284.23 1545.54 L1292.44 1545.54 L1292.44 1544.97 Q1292.44 1540.93 1289.76 1538.73 Q1287.12 1536.5 1282.32 1536.5 Q1279.26 1536.5 1276.36 1537.23 Q1273.47 1537.97 1270.79 1539.43 L1270.79 1534.02 Q1274.01 1532.78 1277.03 1532.17 Q1280.06 1531.54 1282.92 1531.54 Q1290.66 1531.54 1294.48 1535.55 Q1298.29 1539.56 1298.29 1547.71 Z" fill="#000000" fill-rule="nonzero" fill-opacity="1" /><path clip-path="url(#clip080)" d="M1316.15 1522.27 L1316.15 1532.4 L1328.21 1532.4 L1328.21 1536.95 L1316.15 1536.95 L1316.15 1556.3 Q1316.15 1560.66 1317.33 1561.9 Q1318.54 1563.14 1322.2 1563.14 L1328.21 1563.14 L1328.21 1568.04 L1322.2 1568.04 Q1315.42 1568.04 1312.84 1565.53 Q1310.26 1562.98 1310.26 1556.3 L1310.26 1536.95 L1305.97 1536.95 L1305.97 1532.4 L1310.26 1532.4 L1310.26 1522.27 L1316.15 1522.27 Z" fill="#000000" fill-rule="nonzero" fill-opacity="1" /><path clip-path="url(#clip080)" d="M1366.41 1548.76 L1366.41 1551.62 L1339.48 1551.62 Q1339.86 1557.67 1343.11 1560.85 Q1346.39 1564 1352.21 1564 Q1355.59 1564 1358.74 1563.17 Q1361.92 1562.35 1365.04 1560.69 L1365.04 1566.23 Q1361.89 1567.57 1358.58 1568.27 Q1355.27 1568.97 1351.86 1568.97 Q1343.33 1568.97 1338.33 1564 Q1333.37 1559.04 1333.37 1550.57 Q1333.37 1541.82 1338.08 1536.69 Q1342.82 1531.54 1350.84 1531.54 Q1358.04 1531.54 1362.21 1536.18 Q1366.41 1540.8 1366.41 1548.76 M1360.55 1547.04 Q1360.49 1542.23 1357.85 1539.37 Q1355.24 1536.5 1350.91 1536.5 Q1346.01 1536.5 1343.05 1539.27 Q1340.12 1542.04 1339.67 1547.07 L1360.55 1547.04 Z" fill="#000000" fill-rule="nonzero" fill-opacity="1" /><polyline clip-path="url(#clip082)" style="stroke:#000000; stroke-linecap:round; stroke-linejoin:round; stroke-width:2; stroke-opacity:0.1; fill:none" points="234.125,1384.24 2352.76,1384.24 "/>
<polyline clip-path="url(#clip082)" style="stroke:#000000; stroke-linecap:round; stroke-linejoin:round; stroke-width:2; stroke-opacity:0.1; fill:none" points="234.125,1072.21 2352.76,1072.21 "/>
<polyline clip-path="url(#clip082)" style="stroke:#000000; stroke-linecap:round; stroke-linejoin:round; stroke-width:2; stroke-opacity:0.1; fill:none" points="234.125,760.175 2352.76,760.175 "/>
<polyline clip-path="url(#clip082)" style="stroke:#000000; stroke-linecap:round; stroke-linejoin:round; stroke-width:2; stroke-opacity:0.1; fill:none" points="234.125,448.143 2352.76,448.143 "/>
<polyline clip-path="url(#clip082)" style="stroke:#000000; stroke-linecap:round; stroke-linejoin:round; stroke-width:2; stroke-opacity:0.1; fill:none" points="234.125,136.111 2352.76,136.111 "/>
<polyline clip-path="url(#clip080)" style="stroke:#000000; stroke-linecap:round; stroke-linejoin:round; stroke-width:4; stroke-opacity:1; fill:none" points="234.125,1423.18 234.125,47.2441 "/>
<polyline clip-path="url(#clip080)" style="stroke:#000000; stroke-linecap:round; stroke-linejoin:round; stroke-width:4; stroke-opacity:1; fill:none" points="234.125,1384.24 253.023,1384.24 "/>
<polyline clip-path="url(#clip080)" style="stroke:#000000; stroke-linecap:round; stroke-linejoin:round; stroke-width:4; stroke-opacity:1; fill:none" points="234.125,1072.21 253.023,1072.21 "/>
<polyline clip-path="url(#clip080)" style="stroke:#000000; stroke-linecap:round; stroke-linejoin:round; stroke-width:4; stroke-opacity:1; fill:none" points="234.125,760.175 253.023,760.175 "/>
<polyline clip-path="url(#clip080)" style="stroke:#000000; stroke-linecap:round; stroke-linejoin:round; stroke-width:4; stroke-opacity:1; fill:none" points="234.125,448.143 253.023,448.143 "/>
<polyline clip-path="url(#clip080)" style="stroke:#000000; stroke-linecap:round; stroke-linejoin:round; stroke-width:4; stroke-opacity:1; fill:none" points="234.125,136.111 253.023,136.111 "/>
<path clip-path="url(#clip080)" d="M186.181 1370.04 Q182.57 1370.04 180.741 1373.6 Q178.936 1377.14 178.936 1384.27 Q178.936 1391.38 180.741 1394.94 Q182.57 1398.49 186.181 1398.49 Q189.815 1398.49 191.621 1394.94 Q193.45 1391.38 193.45 1384.27 Q193.45 1377.14 191.621 1373.6 Q189.815 1370.04 186.181 1370.04 M186.181 1366.33 Q191.991 1366.33 195.047 1370.94 Q198.125 1375.52 198.125 1384.27 Q198.125 1393 195.047 1397.61 Q191.991 1402.19 186.181 1402.19 Q180.371 1402.19 177.292 1397.61 Q174.237 1393 174.237 1384.27 Q174.237 1375.52 177.292 1370.94 Q180.371 1366.33 186.181 1366.33 Z" fill="#000000" fill-rule="nonzero" fill-opacity="1" /><path clip-path="url(#clip080)" d="M146.066 1054.93 L164.422 1054.93 L164.422 1058.86 L150.348 1058.86 L150.348 1067.33 Q151.366 1066.99 152.385 1066.82 Q153.403 1066.64 154.422 1066.64 Q160.209 1066.64 163.589 1069.81 Q166.968 1072.98 166.968 1078.4 Q166.968 1083.98 163.496 1087.08 Q160.024 1090.16 153.704 1090.16 Q151.528 1090.16 149.26 1089.79 Q147.015 1089.42 144.607 1088.68 L144.607 1083.98 Q146.691 1085.11 148.913 1085.67 Q151.135 1086.22 153.612 1086.22 Q157.616 1086.22 159.954 1084.12 Q162.292 1082.01 162.292 1078.4 Q162.292 1074.79 159.954 1072.68 Q157.616 1070.57 153.612 1070.57 Q151.737 1070.57 149.862 1070.99 Q148.01 1071.41 146.066 1072.29 L146.066 1054.93 Z" fill="#000000" fill-rule="nonzero" fill-opacity="1" /><path clip-path="url(#clip080)" d="M186.181 1058.01 Q182.57 1058.01 180.741 1061.57 Q178.936 1065.11 178.936 1072.24 Q178.936 1079.35 180.741 1082.91 Q182.57 1086.45 186.181 1086.45 Q189.815 1086.45 191.621 1082.91 Q193.45 1079.35 193.45 1072.24 Q193.45 1065.11 191.621 1061.57 Q189.815 1058.01 186.181 1058.01 M186.181 1054.3 Q191.991 1054.3 195.047 1058.91 Q198.125 1063.49 198.125 1072.24 Q198.125 1080.97 195.047 1085.57 Q191.991 1090.16 186.181 1090.16 Q180.371 1090.16 177.292 1085.57 Q174.237 1080.97 174.237 1072.24 Q174.237 1063.49 177.292 1058.91 Q180.371 1054.3 186.181 1054.3 Z" fill="#000000" fill-rule="nonzero" fill-opacity="1" /><path clip-path="url(#clip080)" d="M116.668 773.519 L124.306 773.519 L124.306 747.154 L115.996 748.82 L115.996 744.561 L124.26 742.895 L128.936 742.895 L128.936 773.519 L136.575 773.519 L136.575 777.455 L116.668 777.455 L116.668 773.519 Z" fill="#000000" fill-rule="nonzero" fill-opacity="1" /><path clip-path="url(#clip080)" d="M156.019 745.973 Q152.408 745.973 150.579 749.538 Q148.774 753.08 148.774 760.209 Q148.774 767.316 150.579 770.88 Q152.408 774.422 156.019 774.422 Q159.653 774.422 161.459 770.88 Q163.288 767.316 163.288 760.209 Q163.288 753.08 161.459 749.538 Q159.653 745.973 156.019 745.973 M156.019 742.27 Q161.829 742.27 164.885 746.876 Q167.964 751.459 167.964 760.209 Q167.964 768.936 164.885 773.543 Q161.829 778.126 156.019 778.126 Q150.209 778.126 147.13 773.543 Q144.075 768.936 144.075 760.209 Q144.075 751.459 147.13 746.876 Q150.209 742.27 156.019 742.27 Z" fill="#000000" fill-rule="nonzero" fill-opacity="1" /><path clip-path="url(#clip080)" d="M186.181 745.973 Q182.57 745.973 180.741 749.538 Q178.936 753.08 178.936 760.209 Q178.936 767.316 180.741 770.88 Q182.57 774.422 186.181 774.422 Q189.815 774.422 191.621 770.88 Q193.45 767.316 193.45 760.209 Q193.45 753.08 191.621 749.538 Q189.815 745.973 186.181 745.973 M186.181 742.27 Q191.991 742.27 195.047 746.876 Q198.125 751.459 198.125 760.209 Q198.125 768.936 195.047 773.543 Q191.991 778.126 186.181 778.126 Q180.371 778.126 177.292 773.543 Q174.237 768.936 174.237 760.209 Q174.237 751.459 177.292 746.876 Q180.371 742.27 186.181 742.27 Z" fill="#000000" fill-rule="nonzero" fill-opacity="1" /><path clip-path="url(#clip080)" d="M116.668 461.487 L124.306 461.487 L124.306 435.122 L115.996 436.789 L115.996 432.529 L124.26 430.863 L128.936 430.863 L128.936 461.487 L136.575 461.487 L136.575 465.423 L116.668 465.423 L116.668 461.487 Z" fill="#000000" fill-rule="nonzero" fill-opacity="1" /><path clip-path="url(#clip080)" d="M146.066 430.863 L164.422 430.863 L164.422 434.798 L150.348 434.798 L150.348 443.27 Q151.366 442.923 152.385 442.761 Q153.403 442.576 154.422 442.576 Q160.209 442.576 163.589 445.747 Q166.968 448.918 166.968 454.335 Q166.968 459.913 163.496 463.015 Q160.024 466.094 153.704 466.094 Q151.528 466.094 149.26 465.724 Q147.015 465.353 144.607 464.612 L144.607 459.913 Q146.691 461.048 148.913 461.603 Q151.135 462.159 153.612 462.159 Q157.616 462.159 159.954 460.052 Q162.292 457.946 162.292 454.335 Q162.292 450.724 159.954 448.617 Q157.616 446.511 153.612 446.511 Q151.737 446.511 149.862 446.927 Q148.01 447.344 146.066 448.224 L146.066 430.863 Z" fill="#000000" fill-rule="nonzero" fill-opacity="1" /><path clip-path="url(#clip080)" d="M186.181 433.941 Q182.57 433.941 180.741 437.506 Q178.936 441.048 178.936 448.177 Q178.936 455.284 180.741 458.849 Q182.57 462.39 186.181 462.39 Q189.815 462.39 191.621 458.849 Q193.45 455.284 193.45 448.177 Q193.45 441.048 191.621 437.506 Q189.815 433.941 186.181 433.941 M186.181 430.238 Q191.991 430.238 195.047 434.844 Q198.125 439.427 198.125 448.177 Q198.125 456.904 195.047 461.511 Q191.991 466.094 186.181 466.094 Q180.371 466.094 177.292 461.511 Q174.237 456.904 174.237 448.177 Q174.237 439.427 177.292 434.844 Q180.371 430.238 186.181 430.238 Z" fill="#000000" fill-rule="nonzero" fill-opacity="1" /><path clip-path="url(#clip080)" d="M119.885 149.456 L136.204 149.456 L136.204 153.391 L114.26 153.391 L114.26 149.456 Q116.922 146.701 121.505 142.071 Q126.112 137.419 127.292 136.076 Q129.538 133.553 130.417 131.817 Q131.32 130.058 131.32 128.368 Q131.32 125.613 129.376 123.877 Q127.455 122.141 124.353 122.141 Q122.154 122.141 119.7 122.905 Q117.269 123.669 114.492 125.22 L114.492 120.497 Q117.316 119.363 119.769 118.784 Q122.223 118.206 124.26 118.206 Q129.63 118.206 132.825 120.891 Q136.019 123.576 136.019 128.067 Q136.019 130.196 135.209 132.118 Q134.422 134.016 132.316 136.608 Q131.737 137.28 128.635 140.497 Q125.533 143.692 119.885 149.456 Z" fill="#000000" fill-rule="nonzero" fill-opacity="1" /><path clip-path="url(#clip080)" d="M156.019 121.909 Q152.408 121.909 150.579 125.474 Q148.774 129.016 148.774 136.145 Q148.774 143.252 150.579 146.817 Q152.408 150.358 156.019 150.358 Q159.653 150.358 161.459 146.817 Q163.288 143.252 163.288 136.145 Q163.288 129.016 161.459 125.474 Q159.653 121.909 156.019 121.909 M156.019 118.206 Q161.829 118.206 164.885 122.812 Q167.964 127.396 167.964 136.145 Q167.964 144.872 164.885 149.479 Q161.829 154.062 156.019 154.062 Q150.209 154.062 147.13 149.479 Q144.075 144.872 144.075 136.145 Q144.075 127.396 147.13 122.812 Q150.209 118.206 156.019 118.206 Z" fill="#000000" fill-rule="nonzero" fill-opacity="1" /><path clip-path="url(#clip080)" d="M186.181 121.909 Q182.57 121.909 180.741 125.474 Q178.936 129.016 178.936 136.145 Q178.936 143.252 180.741 146.817 Q182.57 150.358 186.181 150.358 Q189.815 150.358 191.621 146.817 Q193.45 143.252 193.45 136.145 Q193.45 129.016 191.621 125.474 Q189.815 121.909 186.181 121.909 M186.181 118.206 Q191.991 118.206 195.047 122.812 Q198.125 127.396 198.125 136.145 Q198.125 144.872 195.047 149.479 Q191.991 154.062 186.181 154.062 Q180.371 154.062 177.292 149.479 Q174.237 144.872 174.237 136.145 Q174.237 127.396 177.292 122.812 Q180.371 118.206 186.181 118.206 Z" fill="#000000" fill-rule="nonzero" fill-opacity="1" /><path clip-path="url(#clip080)" d="M20.1444 790.212 L26.9239 790.212 Q23.9002 793.458 22.4043 797.15 Q20.9083 800.811 20.9083 804.948 Q20.9083 813.096 25.9054 817.425 Q30.8707 821.754 40.2919 821.754 Q49.6813 821.754 54.6784 817.425 Q59.6436 813.096 59.6436 804.948 Q59.6436 800.811 58.1477 797.15 Q56.6518 793.458 53.6281 790.212 L60.3439 790.212 Q62.6355 793.585 63.7814 797.373 Q64.9272 801.129 64.9272 805.33 Q64.9272 816.12 58.3387 822.327 Q51.7183 828.533 40.2919 828.533 Q28.8336 828.533 22.2451 822.327 Q15.6248 816.12 15.6248 805.33 Q15.6248 801.065 16.7706 797.309 Q17.8846 793.522 20.1444 790.212 Z" fill="#000000" fill-rule="nonzero" fill-opacity="1" /><path clip-path="url(#clip080)" d="M46.0847 764.335 Q46.0847 771.433 47.7079 774.17 Q49.3312 776.907 53.2461 776.907 Q56.3653 776.907 58.2114 774.87 Q60.0256 772.801 60.0256 769.268 Q60.0256 764.399 56.5881 761.471 Q53.1188 758.51 47.3897 758.51 L46.0847 758.51 L46.0847 764.335 M43.6657 752.654 L64.0042 752.654 L64.0042 758.51 L58.5933 758.51 Q61.8398 760.516 63.3994 763.508 Q64.9272 766.499 64.9272 770.828 Q64.9272 776.303 61.8716 779.549 Q58.7843 782.764 53.6281 782.764 Q47.6125 782.764 44.5569 778.753 Q41.5014 774.711 41.5014 766.722 L41.5014 758.51 L40.9285 758.51 Q36.8862 758.51 34.6901 761.184 Q32.4621 763.826 32.4621 768.632 Q32.4621 771.687 33.1941 774.584 Q33.9262 777.48 35.3903 780.154 L29.9795 780.154 Q28.7381 776.939 28.1334 773.915 Q27.4968 770.892 27.4968 768.027 Q27.4968 760.293 31.5072 756.473 Q35.5176 752.654 43.6657 752.654 Z" fill="#000000" fill-rule="nonzero" fill-opacity="1" /><path clip-path="url(#clip080)" d="M29.4065 717.865 L34.9447 717.865 Q33.6716 720.348 33.035 723.022 Q32.3984 725.695 32.3984 728.56 Q32.3984 732.92 33.7352 735.116 Q35.072 737.281 37.7456 737.281 Q39.7826 737.281 40.9603 735.721 Q42.1061 734.162 43.1565 729.451 L43.6021 727.446 Q44.9389 721.207 47.3897 718.597 Q49.8086 715.956 54.1691 715.956 Q59.1344 715.956 62.0308 719.902 Q64.9272 723.817 64.9272 730.692 Q64.9272 733.557 64.3543 736.676 Q63.8132 739.763 62.6992 743.201 L56.6518 743.201 Q58.3387 739.954 59.198 736.803 Q60.0256 733.652 60.0256 730.565 Q60.0256 726.427 58.6251 724.199 Q57.1929 721.971 54.6147 721.971 Q52.2276 721.971 50.9545 723.595 Q49.6813 725.186 48.5037 730.629 L48.0262 732.666 Q46.8804 738.108 44.5251 740.527 Q42.138 742.946 38.0002 742.946 Q32.9713 742.946 30.2341 739.382 Q27.4968 735.817 27.4968 729.26 Q27.4968 726.014 27.9743 723.149 Q28.4517 720.284 29.4065 717.865 Z" fill="#000000" fill-rule="nonzero" fill-opacity="1" /><path clip-path="url(#clip080)" d="M44.7161 676.138 L47.5806 676.138 L47.5806 703.065 Q53.6281 702.683 56.8109 699.437 Q59.9619 696.158 59.9619 690.334 Q59.9619 686.96 59.1344 683.809 Q58.3069 680.626 56.6518 677.507 L62.1899 677.507 Q63.5267 680.658 64.227 683.968 Q64.9272 687.278 64.9272 690.684 Q64.9272 699.214 59.9619 704.211 Q54.9967 709.176 46.5303 709.176 Q37.7774 709.176 32.6531 704.466 Q27.4968 699.723 27.4968 691.702 Q27.4968 684.509 32.1438 680.34 Q36.7589 676.138 44.7161 676.138 M42.9973 681.995 Q38.1912 682.058 35.3266 684.7 Q32.4621 687.31 32.4621 691.639 Q32.4621 696.54 35.2312 699.5 Q38.0002 702.429 43.0292 702.874 L42.9973 681.995 Z" fill="#000000" fill-rule="nonzero" fill-opacity="1" /><path clip-path="url(#clip080)" d="M29.4065 643.8 L34.9447 643.8 Q33.6716 646.283 33.035 648.957 Q32.3984 651.63 32.3984 654.495 Q32.3984 658.855 33.7352 661.051 Q35.072 663.216 37.7456 663.216 Q39.7826 663.216 40.9603 661.656 Q42.1061 660.097 43.1565 655.386 L43.6021 653.381 Q44.9389 647.142 47.3897 644.532 Q49.8086 641.891 54.1691 641.891 Q59.1344 641.891 62.0308 645.837 Q64.9272 649.752 64.9272 656.627 Q64.9272 659.492 64.3543 662.611 Q63.8132 665.698 62.6992 669.136 L56.6518 669.136 Q58.3387 665.889 59.198 662.738 Q60.0256 659.587 60.0256 656.5 Q60.0256 652.362 58.6251 650.134 Q57.1929 647.906 54.6147 647.906 Q52.2276 647.906 50.9545 649.53 Q49.6813 651.121 48.5037 656.564 L48.0262 658.601 Q46.8804 664.043 44.5251 666.462 Q42.138 668.881 38.0002 668.881 Q32.9713 668.881 30.2341 665.317 Q27.4968 661.752 27.4968 655.195 Q27.4968 651.949 27.9743 649.084 Q28.4517 646.219 29.4065 643.8 Z" fill="#000000" fill-rule="nonzero" fill-opacity="1" /><polyline clip-path="url(#clip082)" style="stroke:#374e55; stroke-linecap:round; stroke-linejoin:round; stroke-width:8; stroke-opacity:1; fill:none" points="294.087,1384.24 405.126,1384.24 516.165,1384.24 627.205,1240.7 738.244,991.078 849.283,928.672 960.323,972.356 1071.36,1221.98 1182.4,1278.15 1293.44,1365.52 1404.48,1371.76 1515.52,1378 1626.56,1384.24 1737.6,1384.24 1848.64,1384.24 1959.68,1384.24 2070.72,1384.24 2181.76,1371.76 2292.79,1378 "/>
<circle clip-path="url(#clip082)" cx="294.087" cy="1384.24" r="10.8" fill="#374e55" fill-rule="evenodd" fill-opacity="1" stroke="#000000" stroke-opacity="1" stroke-width="3.2"/>
<circle clip-path="url(#clip082)" cx="405.126" cy="1384.24" r="10.8" fill="#374e55" fill-rule="evenodd" fill-opacity="1" stroke="#000000" stroke-opacity="1" stroke-width="3.2"/>
<circle clip-path="url(#clip082)" cx="516.165" cy="1384.24" r="10.8" fill="#374e55" fill-rule="evenodd" fill-opacity="1" stroke="#000000" stroke-opacity="1" stroke-width="3.2"/>
<circle clip-path="url(#clip082)" cx="627.205" cy="1240.7" r="10.8" fill="#374e55" fill-rule="evenodd" fill-opacity="1" stroke="#000000" stroke-opacity="1" stroke-width="3.2"/>
<circle clip-path="url(#clip082)" cx="738.244" cy="991.078" r="10.8" fill="#374e55" fill-rule="evenodd" fill-opacity="1" stroke="#000000" stroke-opacity="1" stroke-width="3.2"/>
<circle clip-path="url(#clip082)" cx="849.283" cy="928.672" r="10.8" fill="#374e55" fill-rule="evenodd" fill-opacity="1" stroke="#000000" stroke-opacity="1" stroke-width="3.2"/>
<circle clip-path="url(#clip082)" cx="960.323" cy="972.356" r="10.8" fill="#374e55" fill-rule="evenodd" fill-opacity="1" stroke="#000000" stroke-opacity="1" stroke-width="3.2"/>
<circle clip-path="url(#clip082)" cx="1071.36" cy="1221.98" r="10.8" fill="#374e55" fill-rule="evenodd" fill-opacity="1" stroke="#000000" stroke-opacity="1" stroke-width="3.2"/>
<circle clip-path="url(#clip082)" cx="1182.4" cy="1278.15" r="10.8" fill="#374e55" fill-rule="evenodd" fill-opacity="1" stroke="#000000" stroke-opacity="1" stroke-width="3.2"/>
<circle clip-path="url(#clip082)" cx="1293.44" cy="1365.52" r="10.8" fill="#374e55" fill-rule="evenodd" fill-opacity="1" stroke="#000000" stroke-opacity="1" stroke-width="3.2"/>
<circle clip-path="url(#clip082)" cx="1404.48" cy="1371.76" r="10.8" fill="#374e55" fill-rule="evenodd" fill-opacity="1" stroke="#000000" stroke-opacity="1" stroke-width="3.2"/>
<circle clip-path="url(#clip082)" cx="1515.52" cy="1378" r="10.8" fill="#374e55" fill-rule="evenodd" fill-opacity="1" stroke="#000000" stroke-opacity="1" stroke-width="3.2"/>
<circle clip-path="url(#clip082)" cx="1626.56" cy="1384.24" r="10.8" fill="#374e55" fill-rule="evenodd" fill-opacity="1" stroke="#000000" stroke-opacity="1" stroke-width="3.2"/>
<circle clip-path="url(#clip082)" cx="1737.6" cy="1384.24" r="10.8" fill="#374e55" fill-rule="evenodd" fill-opacity="1" stroke="#000000" stroke-opacity="1" stroke-width="3.2"/>
<circle clip-path="url(#clip082)" cx="1848.64" cy="1384.24" r="10.8" fill="#374e55" fill-rule="evenodd" fill-opacity="1" stroke="#000000" stroke-opacity="1" stroke-width="3.2"/>
<circle clip-path="url(#clip082)" cx="1959.68" cy="1384.24" r="10.8" fill="#374e55" fill-rule="evenodd" fill-opacity="1" stroke="#000000" stroke-opacity="1" stroke-width="3.2"/>
<circle clip-path="url(#clip082)" cx="2070.72" cy="1384.24" r="10.8" fill="#374e55" fill-rule="evenodd" fill-opacity="1" stroke="#000000" stroke-opacity="1" stroke-width="3.2"/>
<circle clip-path="url(#clip082)" cx="2181.76" cy="1371.76" r="10.8" fill="#374e55" fill-rule="evenodd" fill-opacity="1" stroke="#000000" stroke-opacity="1" stroke-width="3.2"/>
<circle clip-path="url(#clip082)" cx="2292.79" cy="1378" r="10.8" fill="#374e55" fill-rule="evenodd" fill-opacity="1" stroke="#000000" stroke-opacity="1" stroke-width="3.2"/>
<polyline clip-path="url(#clip082)" style="stroke:#df8f44; stroke-linecap:round; stroke-linejoin:round; stroke-width:8; stroke-opacity:1; fill:none" points="294.087,1384.24 405.126,1371.76 516.165,1371.76 627.205,928.672 738.244,86.1857 849.283,92.4263 960.323,448.143 1071.36,1134.61 1182.4,1271.91 1293.44,1359.28 1404.48,1346.79 1515.52,1346.79 1626.56,1378 1737.6,1371.76 1848.64,1378 1959.68,1378 2070.72,1378 2181.76,1378 2292.79,1378 "/>
<circle clip-path="url(#clip082)" cx="294.087" cy="1384.24" r="10.8" fill="#df8f44" fill-rule="evenodd" fill-opacity="1" stroke="#000000" stroke-opacity="1" stroke-width="3.2"/>
<circle clip-path="url(#clip082)" cx="405.126" cy="1371.76" r="10.8" fill="#df8f44" fill-rule="evenodd" fill-opacity="1" stroke="#000000" stroke-opacity="1" stroke-width="3.2"/>
<circle clip-path="url(#clip082)" cx="516.165" cy="1371.76" r="10.8" fill="#df8f44" fill-rule="evenodd" fill-opacity="1" stroke="#000000" stroke-opacity="1" stroke-width="3.2"/>
<circle clip-path="url(#clip082)" cx="627.205" cy="928.672" r="10.8" fill="#df8f44" fill-rule="evenodd" fill-opacity="1" stroke="#000000" stroke-opacity="1" stroke-width="3.2"/>
<circle clip-path="url(#clip082)" cx="738.244" cy="86.1857" r="10.8" fill="#df8f44" fill-rule="evenodd" fill-opacity="1" stroke="#000000" stroke-opacity="1" stroke-width="3.2"/>
<circle clip-path="url(#clip082)" cx="849.283" cy="92.4263" r="10.8" fill="#df8f44" fill-rule="evenodd" fill-opacity="1" stroke="#000000" stroke-opacity="1" stroke-width="3.2"/>
<circle clip-path="url(#clip082)" cx="960.323" cy="448.143" r="10.8" fill="#df8f44" fill-rule="evenodd" fill-opacity="1" stroke="#000000" stroke-opacity="1" stroke-width="3.2"/>
<circle clip-path="url(#clip082)" cx="1071.36" cy="1134.61" r="10.8" fill="#df8f44" fill-rule="evenodd" fill-opacity="1" stroke="#000000" stroke-opacity="1" stroke-width="3.2"/>
<circle clip-path="url(#clip082)" cx="1182.4" cy="1271.91" r="10.8" fill="#df8f44" fill-rule="evenodd" fill-opacity="1" stroke="#000000" stroke-opacity="1" stroke-width="3.2"/>
<circle clip-path="url(#clip082)" cx="1293.44" cy="1359.28" r="10.8" fill="#df8f44" fill-rule="evenodd" fill-opacity="1" stroke="#000000" stroke-opacity="1" stroke-width="3.2"/>
<circle clip-path="url(#clip082)" cx="1404.48" cy="1346.79" r="10.8" fill="#df8f44" fill-rule="evenodd" fill-opacity="1" stroke="#000000" stroke-opacity="1" stroke-width="3.2"/>
<circle clip-path="url(#clip082)" cx="1515.52" cy="1346.79" r="10.8" fill="#df8f44" fill-rule="evenodd" fill-opacity="1" stroke="#000000" stroke-opacity="1" stroke-width="3.2"/>
<circle clip-path="url(#clip082)" cx="1626.56" cy="1378" r="10.8" fill="#df8f44" fill-rule="evenodd" fill-opacity="1" stroke="#000000" stroke-opacity="1" stroke-width="3.2"/>
<circle clip-path="url(#clip082)" cx="1737.6" cy="1371.76" r="10.8" fill="#df8f44" fill-rule="evenodd" fill-opacity="1" stroke="#000000" stroke-opacity="1" stroke-width="3.2"/>
<circle clip-path="url(#clip082)" cx="1848.64" cy="1378" r="10.8" fill="#df8f44" fill-rule="evenodd" fill-opacity="1" stroke="#000000" stroke-opacity="1" stroke-width="3.2"/>
<circle clip-path="url(#clip082)" cx="1959.68" cy="1378" r="10.8" fill="#df8f44" fill-rule="evenodd" fill-opacity="1" stroke="#000000" stroke-opacity="1" stroke-width="3.2"/>
<circle clip-path="url(#clip082)" cx="2070.72" cy="1378" r="10.8" fill="#df8f44" fill-rule="evenodd" fill-opacity="1" stroke="#000000" stroke-opacity="1" stroke-width="3.2"/>
<circle clip-path="url(#clip082)" cx="2181.76" cy="1378" r="10.8" fill="#df8f44" fill-rule="evenodd" fill-opacity="1" stroke="#000000" stroke-opacity="1" stroke-width="3.2"/>
<circle clip-path="url(#clip082)" cx="2292.79" cy="1378" r="10.8" fill="#df8f44" fill-rule="evenodd" fill-opacity="1" stroke="#000000" stroke-opacity="1" stroke-width="3.2"/>
<polyline clip-path="url(#clip082)" style="stroke:#00a1d5; stroke-linecap:round; stroke-linejoin:round; stroke-width:8; stroke-opacity:1; fill:none" points="294.087,1378 405.126,1346.79 516.165,1359.28 627.205,991.078 738.244,304.608 849.283,317.089 960.323,491.827 1071.36,841.303 1182.4,1178.3 1293.44,1303.11 1404.48,1284.39 1515.52,1315.59 1626.56,1346.79 1737.6,1371.76 1848.64,1365.52 1959.68,1359.28 2070.72,1365.52 2181.76,1340.55 2292.79,1346.79 "/>
<circle clip-path="url(#clip082)" cx="294.087" cy="1378" r="10.8" fill="#00a1d5" fill-rule="evenodd" fill-opacity="1" stroke="#000000" stroke-opacity="1" stroke-width="3.2"/>
<circle clip-path="url(#clip082)" cx="405.126" cy="1346.79" r="10.8" fill="#00a1d5" fill-rule="evenodd" fill-opacity="1" stroke="#000000" stroke-opacity="1" stroke-width="3.2"/>
<circle clip-path="url(#clip082)" cx="516.165" cy="1359.28" r="10.8" fill="#00a1d5" fill-rule="evenodd" fill-opacity="1" stroke="#000000" stroke-opacity="1" stroke-width="3.2"/>
<circle clip-path="url(#clip082)" cx="627.205" cy="991.078" r="10.8" fill="#00a1d5" fill-rule="evenodd" fill-opacity="1" stroke="#000000" stroke-opacity="1" stroke-width="3.2"/>
<circle clip-path="url(#clip082)" cx="738.244" cy="304.608" r="10.8" fill="#00a1d5" fill-rule="evenodd" fill-opacity="1" stroke="#000000" stroke-opacity="1" stroke-width="3.2"/>
<circle clip-path="url(#clip082)" cx="849.283" cy="317.089" r="10.8" fill="#00a1d5" fill-rule="evenodd" fill-opacity="1" stroke="#000000" stroke-opacity="1" stroke-width="3.2"/>
<circle clip-path="url(#clip082)" cx="960.323" cy="491.827" r="10.8" fill="#00a1d5" fill-rule="evenodd" fill-opacity="1" stroke="#000000" stroke-opacity="1" stroke-width="3.2"/>
<circle clip-path="url(#clip082)" cx="1071.36" cy="841.303" r="10.8" fill="#00a1d5" fill-rule="evenodd" fill-opacity="1" stroke="#000000" stroke-opacity="1" stroke-width="3.2"/>
<circle clip-path="url(#clip082)" cx="1182.4" cy="1178.3" r="10.8" fill="#00a1d5" fill-rule="evenodd" fill-opacity="1" stroke="#000000" stroke-opacity="1" stroke-width="3.2"/>
<circle clip-path="url(#clip082)" cx="1293.44" cy="1303.11" r="10.8" fill="#00a1d5" fill-rule="evenodd" fill-opacity="1" stroke="#000000" stroke-opacity="1" stroke-width="3.2"/>
<circle clip-path="url(#clip082)" cx="1404.48" cy="1284.39" r="10.8" fill="#00a1d5" fill-rule="evenodd" fill-opacity="1" stroke="#000000" stroke-opacity="1" stroke-width="3.2"/>
<circle clip-path="url(#clip082)" cx="1515.52" cy="1315.59" r="10.8" fill="#00a1d5" fill-rule="evenodd" fill-opacity="1" stroke="#000000" stroke-opacity="1" stroke-width="3.2"/>
<circle clip-path="url(#clip082)" cx="1626.56" cy="1346.79" r="10.8" fill="#00a1d5" fill-rule="evenodd" fill-opacity="1" stroke="#000000" stroke-opacity="1" stroke-width="3.2"/>
<circle clip-path="url(#clip082)" cx="1737.6" cy="1371.76" r="10.8" fill="#00a1d5" fill-rule="evenodd" fill-opacity="1" stroke="#000000" stroke-opacity="1" stroke-width="3.2"/>
<circle clip-path="url(#clip082)" cx="1848.64" cy="1365.52" r="10.8" fill="#00a1d5" fill-rule="evenodd" fill-opacity="1" stroke="#000000" stroke-opacity="1" stroke-width="3.2"/>
<circle clip-path="url(#clip082)" cx="1959.68" cy="1359.28" r="10.8" fill="#00a1d5" fill-rule="evenodd" fill-opacity="1" stroke="#000000" stroke-opacity="1" stroke-width="3.2"/>
<circle clip-path="url(#clip082)" cx="2070.72" cy="1365.52" r="10.8" fill="#00a1d5" fill-rule="evenodd" fill-opacity="1" stroke="#000000" stroke-opacity="1" stroke-width="3.2"/>
<circle clip-path="url(#clip082)" cx="2181.76" cy="1340.55" r="10.8" fill="#00a1d5" fill-rule="evenodd" fill-opacity="1" stroke="#000000" stroke-opacity="1" stroke-width="3.2"/>
<circle clip-path="url(#clip082)" cx="2292.79" cy="1346.79" r="10.8" fill="#00a1d5" fill-rule="evenodd" fill-opacity="1" stroke="#000000" stroke-opacity="1" stroke-width="3.2"/>
<polyline clip-path="url(#clip082)" style="stroke:#b24745; stroke-linecap:round; stroke-linejoin:round; stroke-width:8; stroke-opacity:1; fill:none" points="294.087,1378 405.126,1378 516.165,1371.76 627.205,1315.59 738.244,1128.37 849.283,1215.74 960.323,1340.55 1071.36,1203.26 1182.4,1309.35 1293.44,1346.79 1404.48,1353.04 1515.52,1365.52 1626.56,1353.04 1737.6,1371.76 1848.64,1384.24 1959.68,1346.79 2070.72,1384.24 2181.76,1378 2292.79,1371.76 "/>
<circle clip-path="url(#clip082)" cx="294.087" cy="1378" r="10.8" fill="#b24745" fill-rule="evenodd" fill-opacity="1" stroke="#000000" stroke-opacity="1" stroke-width="3.2"/>
<circle clip-path="url(#clip082)" cx="405.126" cy="1378" r="10.8" fill="#b24745" fill-rule="evenodd" fill-opacity="1" stroke="#000000" stroke-opacity="1" stroke-width="3.2"/>
<circle clip-path="url(#clip082)" cx="516.165" cy="1371.76" r="10.8" fill="#b24745" fill-rule="evenodd" fill-opacity="1" stroke="#000000" stroke-opacity="1" stroke-width="3.2"/>
<circle clip-path="url(#clip082)" cx="627.205" cy="1315.59" r="10.8" fill="#b24745" fill-rule="evenodd" fill-opacity="1" stroke="#000000" stroke-opacity="1" stroke-width="3.2"/>
<circle clip-path="url(#clip082)" cx="738.244" cy="1128.37" r="10.8" fill="#b24745" fill-rule="evenodd" fill-opacity="1" stroke="#000000" stroke-opacity="1" stroke-width="3.2"/>
<circle clip-path="url(#clip082)" cx="849.283" cy="1215.74" r="10.8" fill="#b24745" fill-rule="evenodd" fill-opacity="1" stroke="#000000" stroke-opacity="1" stroke-width="3.2"/>
<circle clip-path="url(#clip082)" cx="960.323" cy="1340.55" r="10.8" fill="#b24745" fill-rule="evenodd" fill-opacity="1" stroke="#000000" stroke-opacity="1" stroke-width="3.2"/>
<circle clip-path="url(#clip082)" cx="1071.36" cy="1203.26" r="10.8" fill="#b24745" fill-rule="evenodd" fill-opacity="1" stroke="#000000" stroke-opacity="1" stroke-width="3.2"/>
<circle clip-path="url(#clip082)" cx="1182.4" cy="1309.35" r="10.8" fill="#b24745" fill-rule="evenodd" fill-opacity="1" stroke="#000000" stroke-opacity="1" stroke-width="3.2"/>
<circle clip-path="url(#clip082)" cx="1293.44" cy="1346.79" r="10.8" fill="#b24745" fill-rule="evenodd" fill-opacity="1" stroke="#000000" stroke-opacity="1" stroke-width="3.2"/>
<circle clip-path="url(#clip082)" cx="1404.48" cy="1353.04" r="10.8" fill="#b24745" fill-rule="evenodd" fill-opacity="1" stroke="#000000" stroke-opacity="1" stroke-width="3.2"/>
<circle clip-path="url(#clip082)" cx="1515.52" cy="1365.52" r="10.8" fill="#b24745" fill-rule="evenodd" fill-opacity="1" stroke="#000000" stroke-opacity="1" stroke-width="3.2"/>
<circle clip-path="url(#clip082)" cx="1626.56" cy="1353.04" r="10.8" fill="#b24745" fill-rule="evenodd" fill-opacity="1" stroke="#000000" stroke-opacity="1" stroke-width="3.2"/>
<circle clip-path="url(#clip082)" cx="1737.6" cy="1371.76" r="10.8" fill="#b24745" fill-rule="evenodd" fill-opacity="1" stroke="#000000" stroke-opacity="1" stroke-width="3.2"/>
<circle clip-path="url(#clip082)" cx="1848.64" cy="1384.24" r="10.8" fill="#b24745" fill-rule="evenodd" fill-opacity="1" stroke="#000000" stroke-opacity="1" stroke-width="3.2"/>
<circle clip-path="url(#clip082)" cx="1959.68" cy="1346.79" r="10.8" fill="#b24745" fill-rule="evenodd" fill-opacity="1" stroke="#000000" stroke-opacity="1" stroke-width="3.2"/>
<circle clip-path="url(#clip082)" cx="2070.72" cy="1384.24" r="10.8" fill="#b24745" fill-rule="evenodd" fill-opacity="1" stroke="#000000" stroke-opacity="1" stroke-width="3.2"/>
<circle clip-path="url(#clip082)" cx="2181.76" cy="1378" r="10.8" fill="#b24745" fill-rule="evenodd" fill-opacity="1" stroke="#000000" stroke-opacity="1" stroke-width="3.2"/>
<circle clip-path="url(#clip082)" cx="2292.79" cy="1371.76" r="10.8" fill="#b24745" fill-rule="evenodd" fill-opacity="1" stroke="#000000" stroke-opacity="1" stroke-width="3.2"/>
<path clip-path="url(#clip080)" d="M1932.63 352.309 L2282.13 352.309 L2282.13 93.1086 L1932.63 93.1086  Z" fill="#ffffff" fill-rule="evenodd" fill-opacity="1"/>
<polyline clip-path="url(#clip080)" style="stroke:#000000; stroke-linecap:round; stroke-linejoin:round; stroke-width:4; stroke-opacity:1; fill:none" points="1932.63,352.309 2282.13,352.309 2282.13,93.1086 1932.63,93.1086 1932.63,352.309 "/>
<polyline clip-path="url(#clip080)" style="stroke:#374e55; stroke-linecap:round; stroke-linejoin:round; stroke-width:8; stroke-opacity:1; fill:none" points="1956.17,144.949 2097.42,144.949 "/>
<circle clip-path="url(#clip080)" cx="2026.8" cy="144.949" r="19.6169" fill="#374e55" fill-rule="evenodd" fill-opacity="1" stroke="#000000" stroke-opacity="1" stroke-width="5.85143"/>
<path clip-path="url(#clip080)" d="M2148.83 130.331 L2148.83 135.261 Q2146.47 133.062 2143.78 131.974 Q2141.12 130.886 2138.11 130.886 Q2132.18 130.886 2129.04 134.52 Q2125.89 138.132 2125.89 144.983 Q2125.89 151.812 2129.04 155.446 Q2132.18 159.057 2138.11 159.057 Q2141.12 159.057 2143.78 157.969 Q2146.47 156.881 2148.83 154.682 L2148.83 159.567 Q2146.37 161.233 2143.62 162.067 Q2140.89 162.9 2137.83 162.9 Q2129.98 162.9 2125.47 158.108 Q2120.96 153.293 2120.96 144.983 Q2120.96 136.65 2125.47 131.858 Q2129.98 127.044 2137.83 127.044 Q2140.93 127.044 2143.66 127.877 Q2146.42 128.687 2148.83 130.331 Z" fill="#000000" fill-rule="nonzero" fill-opacity="1" /><path clip-path="url(#clip080)" d="M2177.41 146.581 L2177.41 162.229 L2173.16 162.229 L2173.16 146.719 Q2173.16 143.039 2171.72 141.21 Q2170.28 139.382 2167.41 139.382 Q2163.97 139.382 2161.97 141.581 Q2159.98 143.78 2159.98 147.576 L2159.98 162.229 L2155.7 162.229 L2155.7 126.21 L2159.98 126.21 L2159.98 140.331 Q2161.51 137.993 2163.57 136.835 Q2165.66 135.678 2168.36 135.678 Q2172.83 135.678 2175.12 138.456 Q2177.41 141.21 2177.41 146.581 Z" fill="#000000" fill-rule="nonzero" fill-opacity="1" /><path clip-path="url(#clip080)" d="M2185.91 136.303 L2190.17 136.303 L2190.17 162.229 L2185.91 162.229 L2185.91 136.303 M2185.91 126.21 L2190.17 126.21 L2190.17 131.604 L2185.91 131.604 L2185.91 126.21 Z" fill="#000000" fill-rule="nonzero" fill-opacity="1" /><path clip-path="url(#clip080)" d="M2199.08 126.21 L2203.34 126.21 L2203.34 162.229 L2199.08 162.229 L2199.08 126.21 Z" fill="#000000" fill-rule="nonzero" fill-opacity="1" /><path clip-path="url(#clip080)" d="M2229.31 140.238 L2229.31 126.21 L2233.57 126.21 L2233.57 162.229 L2229.31 162.229 L2229.31 158.34 Q2227.97 160.655 2225.91 161.789 Q2223.87 162.9 2221 162.9 Q2216.3 162.9 2213.34 159.15 Q2210.4 155.4 2210.4 149.289 Q2210.4 143.178 2213.34 139.428 Q2216.3 135.678 2221 135.678 Q2223.87 135.678 2225.91 136.812 Q2227.97 137.923 2229.31 140.238 M2214.8 149.289 Q2214.8 153.988 2216.72 156.673 Q2218.66 159.335 2222.04 159.335 Q2225.42 159.335 2227.37 156.673 Q2229.31 153.988 2229.31 149.289 Q2229.31 144.59 2227.37 141.928 Q2225.42 139.243 2222.04 139.243 Q2218.66 139.243 2216.72 141.928 Q2214.8 144.59 2214.8 149.289 Z" fill="#000000" fill-rule="nonzero" fill-opacity="1" /><polyline clip-path="url(#clip080)" style="stroke:#df8f44; stroke-linecap:round; stroke-linejoin:round; stroke-width:8; stroke-opacity:1; fill:none" points="1956.17,196.789 2097.42,196.789 "/>
<circle clip-path="url(#clip080)" cx="2026.8" cy="196.789" r="19.6169" fill="#df8f44" fill-rule="evenodd" fill-opacity="1" stroke="#000000" stroke-opacity="1" stroke-width="5.85143"/>
<path clip-path="url(#clip080)" d="M2120.96 179.509 L2125.98 179.509 L2135.56 193.722 L2145.08 179.509 L2150.1 179.509 L2137.88 197.61 L2137.88 214.069 L2133.18 214.069 L2133.18 197.61 L2120.96 179.509 Z" fill="#000000" fill-rule="nonzero" fill-opacity="1" /><path clip-path="url(#clip080)" d="M2158.22 191.129 Q2154.8 191.129 2152.81 193.814 Q2150.82 196.476 2150.82 201.129 Q2150.82 205.782 2152.78 208.467 Q2154.78 211.129 2158.22 211.129 Q2161.63 211.129 2163.62 208.444 Q2165.61 205.758 2165.61 201.129 Q2165.61 196.522 2163.62 193.837 Q2161.63 191.129 2158.22 191.129 M2158.22 187.518 Q2163.78 187.518 2166.95 191.129 Q2170.12 194.74 2170.12 201.129 Q2170.12 207.495 2166.95 211.129 Q2163.78 214.74 2158.22 214.74 Q2152.65 214.74 2149.47 211.129 Q2146.33 207.495 2146.33 201.129 Q2146.33 194.74 2149.47 191.129 Q2152.65 187.518 2158.22 187.518 Z" fill="#000000" fill-rule="nonzero" fill-opacity="1" /><path clip-path="url(#clip080)" d="M2176.74 203.837 L2176.74 188.143 L2181 188.143 L2181 203.675 Q2181 207.356 2182.44 209.208 Q2183.87 211.036 2186.74 211.036 Q2190.19 211.036 2192.18 208.837 Q2194.2 206.638 2194.2 202.842 L2194.2 188.143 L2198.46 188.143 L2198.46 214.069 L2194.2 214.069 L2194.2 210.087 Q2192.65 212.448 2190.59 213.606 Q2188.55 214.74 2185.84 214.74 Q2181.37 214.74 2179.06 211.962 Q2176.74 209.184 2176.74 203.837 M2187.46 187.518 L2187.46 187.518 Z" fill="#000000" fill-rule="nonzero" fill-opacity="1" /><path clip-path="url(#clip080)" d="M2228.78 198.421 L2228.78 214.069 L2224.52 214.069 L2224.52 198.559 Q2224.52 194.879 2223.09 193.05 Q2221.65 191.222 2218.78 191.222 Q2215.33 191.222 2213.34 193.421 Q2211.35 195.62 2211.35 199.416 L2211.35 214.069 L2207.07 214.069 L2207.07 188.143 L2211.35 188.143 L2211.35 192.171 Q2212.88 189.833 2214.94 188.675 Q2217.02 187.518 2219.73 187.518 Q2224.2 187.518 2226.49 190.296 Q2228.78 193.05 2228.78 198.421 Z" fill="#000000" fill-rule="nonzero" fill-opacity="1" /><path clip-path="url(#clip080)" d="M2254.34 200.805 Q2254.34 196.175 2252.41 193.629 Q2250.52 191.083 2247.07 191.083 Q2243.64 191.083 2241.72 193.629 Q2239.82 196.175 2239.82 200.805 Q2239.82 205.411 2241.72 207.958 Q2243.64 210.504 2247.07 210.504 Q2250.52 210.504 2252.41 207.958 Q2254.34 205.411 2254.34 200.805 M2258.59 210.851 Q2258.59 217.471 2255.65 220.689 Q2252.71 223.93 2246.65 223.93 Q2244.4 223.93 2242.41 223.582 Q2240.42 223.258 2238.55 222.564 L2238.55 218.42 Q2240.42 219.439 2242.25 219.925 Q2244.08 220.411 2245.98 220.411 Q2250.17 220.411 2252.25 218.212 Q2254.34 216.036 2254.34 211.615 L2254.34 209.508 Q2253.02 211.8 2250.96 212.934 Q2248.9 214.069 2246.03 214.069 Q2241.26 214.069 2238.34 210.434 Q2235.42 206.8 2235.42 200.805 Q2235.42 194.786 2238.34 191.152 Q2241.26 187.518 2246.03 187.518 Q2248.9 187.518 2250.96 188.652 Q2253.02 189.786 2254.34 192.078 L2254.34 188.143 L2258.59 188.143 L2258.59 210.851 Z" fill="#000000" fill-rule="nonzero" fill-opacity="1" /><polyline clip-path="url(#clip080)" style="stroke:#00a1d5; stroke-linecap:round; stroke-linejoin:round; stroke-width:8; stroke-opacity:1; fill:none" points="1956.17,248.629 2097.42,248.629 "/>
<circle clip-path="url(#clip080)" cx="2026.8" cy="248.629" r="19.6169" fill="#00a1d5" fill-rule="evenodd" fill-opacity="1" stroke="#000000" stroke-opacity="1" stroke-width="5.85143"/>
<path clip-path="url(#clip080)" d="M2120.96 231.349 L2127.92 231.349 L2136.74 254.867 L2145.61 231.349 L2152.58 231.349 L2152.58 265.909 L2148.02 265.909 L2148.02 235.562 L2139.1 259.265 L2134.41 259.265 L2125.49 235.562 L2125.49 265.909 L2120.96 265.909 L2120.96 231.349 Z" fill="#000000" fill-rule="nonzero" fill-opacity="1" /><path clip-path="url(#clip080)" d="M2161.67 239.983 L2165.93 239.983 L2165.93 265.909 L2161.67 265.909 L2161.67 239.983 M2161.67 229.89 L2165.93 229.89 L2165.93 235.284 L2161.67 235.284 L2161.67 229.89 Z" fill="#000000" fill-rule="nonzero" fill-opacity="1" /><path clip-path="url(#clip080)" d="M2191.91 243.918 L2191.91 229.89 L2196.16 229.89 L2196.16 265.909 L2191.91 265.909 L2191.91 262.02 Q2190.56 264.335 2188.5 265.469 Q2186.47 266.58 2183.59 266.58 Q2178.9 266.58 2175.93 262.83 Q2172.99 259.08 2172.99 252.969 Q2172.99 246.858 2175.93 243.108 Q2178.9 239.358 2183.59 239.358 Q2186.47 239.358 2188.5 240.492 Q2190.56 241.603 2191.91 243.918 M2177.39 252.969 Q2177.39 257.668 2179.31 260.353 Q2181.26 263.015 2184.64 263.015 Q2188.02 263.015 2189.96 260.353 Q2191.91 257.668 2191.91 252.969 Q2191.91 248.27 2189.96 245.608 Q2188.02 242.923 2184.64 242.923 Q2181.26 242.923 2179.31 245.608 Q2177.39 248.27 2177.39 252.969 Z" fill="#000000" fill-rule="nonzero" fill-opacity="1" /><polyline clip-path="url(#clip080)" style="stroke:#b24745; stroke-linecap:round; stroke-linejoin:round; stroke-width:8; stroke-opacity:1; fill:none" points="1956.17,300.469 2097.42,300.469 "/>
<circle clip-path="url(#clip080)" cx="2026.8" cy="300.469" r="19.6169" fill="#b24745" fill-rule="evenodd" fill-opacity="1" stroke="#000000" stroke-opacity="1" stroke-width="5.85143"/>
<path clip-path="url(#clip080)" d="M2136.97 286.36 Q2131.88 286.36 2128.87 290.156 Q2125.89 293.952 2125.89 300.503 Q2125.89 307.031 2128.87 310.827 Q2131.88 314.624 2136.97 314.624 Q2142.07 314.624 2145.03 310.827 Q2148.02 307.031 2148.02 300.503 Q2148.02 293.952 2145.03 290.156 Q2142.07 286.36 2136.97 286.36 M2136.97 282.564 Q2144.24 282.564 2148.6 287.448 Q2152.95 292.309 2152.95 300.503 Q2152.95 308.675 2148.6 313.559 Q2144.24 318.42 2136.97 318.42 Q2129.68 318.42 2125.31 313.559 Q2120.96 308.698 2120.96 300.503 Q2120.96 292.309 2125.31 287.448 Q2129.68 282.564 2136.97 282.564 Z" fill="#000000" fill-rule="nonzero" fill-opacity="1" /><path clip-path="url(#clip080)" d="M2160.08 281.73 L2164.34 281.73 L2164.34 317.749 L2160.08 317.749 L2160.08 281.73 Z" fill="#000000" fill-rule="nonzero" fill-opacity="1" /><path clip-path="url(#clip080)" d="M2190.31 295.758 L2190.31 281.73 L2194.57 281.73 L2194.57 317.749 L2190.31 317.749 L2190.31 313.86 Q2188.97 316.175 2186.91 317.309 Q2184.87 318.42 2182 318.42 Q2177.3 318.42 2174.34 314.67 Q2171.4 310.92 2171.4 304.809 Q2171.4 298.698 2174.34 294.948 Q2177.3 291.198 2182 291.198 Q2184.87 291.198 2186.91 292.332 Q2188.97 293.443 2190.31 295.758 M2175.79 304.809 Q2175.79 309.508 2177.72 312.193 Q2179.66 314.855 2183.04 314.855 Q2186.42 314.855 2188.36 312.193 Q2190.31 309.508 2190.31 304.809 Q2190.31 300.11 2188.36 297.448 Q2186.42 294.763 2183.04 294.763 Q2179.66 294.763 2177.72 297.448 Q2175.79 300.11 2175.79 304.809 Z" fill="#000000" fill-rule="nonzero" fill-opacity="1" /></svg>
